<svg xmlns="http://www.w3.org/2000/svg" width="66" height="66" viewBox="0 0 66 66">
  <g id="Group_58576" data-name="Group 58576" transform="translate(15527 -12760)">
    <path id="Path_230243" data-name="Path 230243" d="M13504.065-18440a5.807,5.807,0,0,1-5.8-5.8v-1.934h15.468v1.934a5.807,5.807,0,0,1-5.8,5.8Zm-5.8-11.6a1.916,1.916,0,0,1-1.935-1.934v-.426a9.514,9.514,0,0,0-2.513-6.627,17.493,17.493,0,0,1-4.679-16.822,17.134,17.134,0,0,1,12.684-12.488,17.476,17.476,0,0,1,15,3.246,17.386,17.386,0,0,1,6.573,13.652,17.414,17.414,0,0,1-5.065,12.3,9.592,9.592,0,0,0-2.668,6.742v.426a1.916,1.916,0,0,1-1.935,1.934Zm-1.618-23.953a1.933,1.933,0,0,0,1.411,2.34,1.932,1.932,0,0,0,2.344-1.41,5.655,5.655,0,0,1,5.6-4.176,1.935,1.935,0,0,0,1.936-1.934,1.935,1.935,0,0,0-1.936-1.934A9.549,9.549,0,0,0,13496.648-18475.555Zm32.556,4.488a1.932,1.932,0,0,1-1.935-1.934,1.932,1.932,0,0,1,1.935-1.934h7.861A1.934,1.934,0,0,1,13539-18473a1.934,1.934,0,0,1-1.935,1.934Zm-54.271,0A1.932,1.932,0,0,1,13473-18473a1.932,1.932,0,0,1,1.933-1.934h7.864a1.934,1.934,0,0,1,1.935,1.934,1.934,1.934,0,0,1-1.935,1.934Zm46.108-16.975a1.933,1.933,0,0,1,0-2.736l5.469-5.469a1.933,1.933,0,0,1,2.732,0,1.934,1.934,0,0,1,0,2.736l-5.467,5.469a1.93,1.93,0,0,1-1.368.564A1.924,1.924,0,0,1,13521.041-18488.041Zm-32.816,0-5.467-5.469a1.934,1.934,0,0,1,0-2.736,1.933,1.933,0,0,1,2.732,0l5.469,5.469a1.931,1.931,0,0,1,0,2.736,1.922,1.922,0,0,1-1.365.564A1.934,1.934,0,0,1,13488.225-18488.041Zm15.841-8.164v-7.861A1.935,1.935,0,0,1,13506-18506a1.933,1.933,0,0,1,1.933,1.934v7.861a1.931,1.931,0,0,1-1.933,1.936A1.933,1.933,0,0,1,13504.065-18496.205Z" transform="translate(-29000 31266)"/>
    <rect id="Rectangle_45639" data-name="Rectangle 45639" width="66" height="66" transform="translate(-15527 12760)" fill="none"/>
  </g>
</svg>
