<svg xmlns="http://www.w3.org/2000/svg" width="44" height="44" viewBox="0 0 44 44">
  <g id="Group_58580" data-name="Group 58580" transform="translate(14716 -12932)">
    <rect id="Rectangle_45629" data-name="Rectangle 45629" width="44" height="44" rx="10" transform="translate(-14716 12932)" fill="#fff" opacity="0.1"/>
    <g id="Group_58530" data-name="Group 58530" transform="translate(-14706.162 12942.084)">
      <path id="Path_54" data-name="Path 54" d="M17.8,23.985H6.184A6.191,6.191,0,0,1,0,17.8V6.185A6.191,6.191,0,0,1,6.184,0H17.8a6.192,6.192,0,0,1,6.185,6.185V17.8A6.192,6.192,0,0,1,17.8,23.985M6.184,2.413A3.775,3.775,0,0,0,2.413,6.185V17.8a3.775,3.775,0,0,0,3.771,3.771H17.8A3.775,3.775,0,0,0,21.572,17.8V6.185A3.776,3.776,0,0,0,17.8,2.413Z" fill="#fff"/>
      <path id="Path_55" data-name="Path 55" d="M10.687,15.411A4.411,4.411,0,0,1,6.192,11.1v-.366a4.411,4.411,0,0,1,4.495-4.311,4.41,4.41,0,0,1,4.494,4.311V11.1a4.41,4.41,0,0,1-4.494,4.311m0-6.59a2.014,2.014,0,0,0-2.1,1.913V11.1a2.014,2.014,0,0,0,2.1,1.913,2.013,2.013,0,0,0,2.1-1.913v-.366a2.013,2.013,0,0,0-2.1-1.913" transform="translate(1.305 1.354)" fill="#fff"/>
      <path id="Path_56" data-name="Path 56" d="M14.822,6.838A1.332,1.332,0,1,1,16.155,5.5a1.331,1.331,0,0,1-1.332,1.34m0-2.4" transform="translate(2.797 0.865)" fill="#fff"/>
    </g>
  </g>
</svg>
