<svg xmlns="http://www.w3.org/2000/svg" width="44" height="44" viewBox="0 0 44 44">
  <g id="Group_58581" data-name="Group 58581" transform="translate(14637 -12932)">
    <rect id="Rectangle_45629" data-name="Rectangle 45629" width="44" height="44" rx="10" transform="translate(-14637 12932)" fill="#fff" opacity="0.1"/>
    <g id="Group_58531" data-name="Group 58531" transform="translate(-14627.025 12942.084)">
      <path id="Path_41" data-name="Path 41" d="M87.733,11.072c.336-.377.6-.757.953-1.081A5.238,5.238,0,0,1,92.45,8.505a8.758,8.758,0,0,1,2.367.288A4.63,4.63,0,0,1,98.1,12.244a14.452,14.452,0,0,1,.437,3.961v8.435c0,.264-.072.332-.331.33q-2.175-.018-4.347,0c-.255,0-.309-.077-.3-.318q.011-4.015,0-8.029a7.254,7.254,0,0,0-.234-1.993,2.24,2.24,0,0,0-2.466-1.746,2.693,2.693,0,0,0-2.828,2.55c0,.047,0,.092,0,.139a9.983,9.983,0,0,0-.076,1.256v7.808c0,.259-.065.336-.329.333q-2.189-.02-4.377,0c-.235,0-.3-.06-.3-.3q.009-7.73,0-15.459c0-.255.083-.314.324-.312q2.079.016,4.161,0c.255,0,.32.08.317.323-.014.615,0,1.23,0,1.847" transform="translate(-74.558 -1.252)" fill="#fff"/>
      <path id="Path_42" data-name="Path 42" d="M81.151,16.893v7.648c0,.283-.068.368-.362.366-1.449-.016-2.9-.012-4.345,0-.234,0-.3-.056-.3-.3V9.127c0-.212.052-.289.277-.288q2.214.016,4.41,0c.282,0,.32.1.32.349q-.011,3.857,0,7.709" transform="translate(-75.762 -1.185)" fill="#fff"/>
      <path id="Path_43" data-name="Path 43" d="M81.613,5.209A2.894,2.894,0,1,1,78.7,2.331h.022a2.894,2.894,0,0,1,2.888,2.878" transform="translate(-75.825 -2.331)" fill="#fff"/>
      <line id="Line_9" data-name="Line 9" y2="15.946" transform="translate(2.894 7.662)" fill="#040504"/>
    </g>
  </g>
</svg>
