<svg xmlns="http://www.w3.org/2000/svg" width="66" height="66" viewBox="0 0 66 66">
  <g id="Group_58628" data-name="Group 58628" transform="translate(16176 -6365)">
    <g id="Group_58474" data-name="Group 58474" transform="translate(-16176 6365.371)">
      <path id="play_3840011" d="M79.207,13.107,60.43.61a3.2,3.2,0,0,0-3.65,0,4.02,4.02,0,0,0-1.741,3.432V29.036a4.02,4.02,0,0,0,1.741,3.432,3.2,3.2,0,0,0,3.65,0l18.776-12.5a4.02,4.02,0,0,0,1.741-3.432A4.02,4.02,0,0,0,79.207,13.107Z" transform="translate(-31.993 17.09)" fill="#fff"/>
      <g id="Ellipse_3965" data-name="Ellipse 3965" transform="translate(0 -0.371)" fill="none" stroke="#fff" stroke-width="1">
        <circle cx="33" cy="33" r="33" stroke="none"/>
        <circle cx="33" cy="33" r="32.5" fill="none"/>
      </g>
    </g>
  </g>
</svg>
