<svg xmlns="http://www.w3.org/2000/svg" width="66" height="66" viewBox="0 0 66 66">
  <g id="Group_58578" data-name="Group 58578" transform="translate(14983 -12761)">
    <path id="Path_230244" data-name="Path 230244" d="M13520.141-18445.893v-37.031a12.959,12.959,0,0,1-7.074-11.539,12.97,12.97,0,0,1,6.656-11.32.288.288,0,0,1,.418.25v13.676l5.887,2.352,5.9-2.352v-13.676a.285.285,0,0,1,.414-.25,12.968,12.968,0,0,1,6.658,11.32,12.964,12.964,0,0,1-7.072,11.539v37.031a5.9,5.9,0,0,1-5.9,5.891A5.892,5.892,0,0,1,13520.141-18445.893Zm-17.693,5.891a1.647,1.647,0,0,1-1.641-1.535l-.527-6.754a25.126,25.126,0,0,1-7.715-3.2l-5.146,4.41a1.649,1.649,0,0,1-2.244-.086l-5.014-5.012a1.641,1.641,0,0,1-.088-2.242l4.412-5.156a25.364,25.364,0,0,1-3.209-7.723l-6.752-.516a1.652,1.652,0,0,1-1.521-1.652v-7.078a1.652,1.652,0,0,1,1.521-1.652l6.752-.516a25.3,25.3,0,0,1,3.209-7.719l-4.412-5.156a1.646,1.646,0,0,1,.088-2.246l5.014-5.012a1.657,1.657,0,0,1,2.244-.09l5.146,4.41a25.507,25.507,0,0,1,7.715-3.191l.527-6.754a1.658,1.658,0,0,1,1.652-1.535h7.084a1.659,1.659,0,0,1,1.652,1.535l.031.379a17.636,17.636,0,0,0-2.867,9.625,17.719,17.719,0,0,0,1.883,7.969,14.361,14.361,0,0,0-4.246-.645,14.14,14.14,0,0,0-14.145,14.133,14.142,14.142,0,0,0,14.145,14.141,14,14,0,0,0,9.426-3.621v13.012a24.367,24.367,0,0,1-3.711,1.184l-.516,6.754a1.659,1.659,0,0,1-1.652,1.535Z" transform="translate(-28456.002 31267.002)"/>
    <rect id="Rectangle_45640" data-name="Rectangle 45640" width="66" height="66" transform="translate(-14983 12761)" fill="none"/>
  </g>
</svg>
