<svg xmlns="http://www.w3.org/2000/svg" width="66" height="66" viewBox="0 0 66 66">
  <g id="Group_58577" data-name="Group 58577" transform="translate(14445 -12761)">
    <path id="Path_230245" data-name="Path 230245" d="M13483.816-18440v-16.215h-2.031V-18440h-6.083v-16.215h-2.7v-13.844a5.754,5.754,0,0,1,5.742-5.75h24.656v6.09h-13.506V-18440Zm35.126-40.529h-27.027v-6.082h27.027v-5.877l8.917,8.918-8.917,8.922Zm-43.24-3.041a5.75,5.75,0,0,1,5.742-5.742,5.75,5.75,0,0,1,5.743,5.742,5.75,5.75,0,0,1-5.743,5.742A5.75,5.75,0,0,1,13475.7-18483.57Zm27.018-10.465H13475.7v-6.088h27.018V-18506l8.933,8.922-8.933,8.92Z" transform="translate(-27912 31267)"/>
    <rect id="Rectangle_45641" data-name="Rectangle 45641" width="66" height="66" transform="translate(-14445 12761)" fill="none"/>
  </g>
</svg>
