<svg xmlns="http://www.w3.org/2000/svg" width="44" height="44" viewBox="0 0 44 44">
  <g id="Group_58582" data-name="Group 58582" transform="translate(14559 -12932)">
    <rect id="Rectangle_45629" data-name="Rectangle 45629" width="44" height="44" rx="10" transform="translate(-14559 12932)" fill="#fff" opacity="0.1"/>
    <g id="Group_58529" data-name="Group 58529" transform="translate(-14548.916 12942.084)">
      <g id="Group_7" data-name="Group 7">
        <path id="Path_48" data-name="Path 48" d="M0,21.918H3.562L11.5,12.6,9.99,10.37Z" transform="translate(0 1.915)" fill="#fff"/>
        <path id="Path_49" data-name="Path 49" d="M21.827,0l-3.3.072-7.7,8.9,1.451,2.243Z" transform="translate(2.005 0)" fill="#fff"/>
        <path id="Path_50" data-name="Path 50" d="M21.367,22.425H16.5L11.016,14.34l-1.5-2.215L2.08,1.17H7.648l4.843,7.514,1.44,2.227Z" transform="translate(0.414 0.233)" fill="#fff"/>
        <path id="Path_51" data-name="Path 51" d="M4.691,2.553H7.37l12.2,18.888H17.515ZM.192.17l16.06,23.653h7.694L8.669.17Z" transform="translate(0.038 0.034)" fill="#fff"/>
      </g>
    </g>
  </g>
</svg>
